<?xml version="1.0" encoding="utf-8"?>
<!-- Generator: Adobe Illustrator 27.3.0, SVG Export Plug-In . SVG Version: 6.00 Build 0)  -->
<svg version="1.1" id="Camada_1" xmlns="http://www.w3.org/2000/svg" xmlns:xlink="http://www.w3.org/1999/xlink" x="0px" y="0px"
	 viewBox="0 0 150 150" style="enable-background:new 0 0 150 150;" xml:space="preserve">
<style type="text/css">
	.st0{fill:#2898E0;}
</style>
<g id="Solid">
	<path id="Caminho_14" class="st0" d="M69.7,115.3c2.9,2.9,7.7,2.9,10.6,0l0,0L108.6,87c2.9-2.9,2.9-7.7,0-10.6s-7.7-2.9-10.6,0l0,0
		L82.5,91.9V10c0-4.1-3.3-7.5-7.5-7.5s-7.5,3.3-7.5,7.5v81.9L52,76.4c-2.9-2.9-7.7-2.9-10.6,0s-2.9,7.7,0,10.6l0,0L69.7,115.3
		L69.7,115.3z"/>
	<path id="Caminho_15" class="st0" d="M139.9,67.5c-4.1,0-7.5,3.4-7.5,7.5v57.4H17.5V75c0-4.1-3.4-7.5-7.5-7.5S2.6,70.9,2.6,75v60
		c0,6.9,5.6,12.5,12.5,12.5h119.9c6.9,0,12.5-5.6,12.5-12.5l0,0V75C147.4,70.9,144.1,67.5,139.9,67.5L139.9,67.5z"/>
</g>
</svg>
