<?xml version="1.0" encoding="utf-8"?>
<!-- Generator: Adobe Illustrator 27.3.0, SVG Export Plug-In . SVG Version: 6.00 Build 0)  -->
<svg version="1.1" id="Camada_1" xmlns="http://www.w3.org/2000/svg" xmlns:xlink="http://www.w3.org/1999/xlink" x="0px" y="0px"
	 viewBox="0 0 150 150" style="enable-background:new 0 0 150 150;" xml:space="preserve">
<style type="text/css">
	.st0{fill:#2898E0;}
</style>
<path class="st0" d="M80.1,103.4l-22.4,22.4l0,0c-9.5,9.1-24.5,8.7-33.6-0.8c-8.8-9.2-8.8-23.6,0-32.8l0,0l22.4-22.4
	c3-3.2,2.8-8.2-0.5-11.2c-3-2.8-7.7-2.8-10.7,0L12.9,81l0,0c-14.9,16-14.1,41,1.9,56c15.2,14.2,38.9,14.2,54.1,0l0,0l22.4-22.4
	c3-3.2,2.8-8.2-0.5-11.2C87.8,100.7,83.1,100.7,80.1,103.4L80.1,103.4L80.1,103.4z"/>
<path class="st0" d="M147.8,41.8c0-21.9-17.8-39.6-39.7-39.6c-10.5,0-20.5,4.2-27.9,11.6l0,0L57.8,36.2c-3.2,3-3.4,8-0.5,11.2
	c3,3.2,8,3.4,11.2,0.5c0.2-0.2,0.3-0.3,0.5-0.5L91.3,25l0,0c9.3-9.3,24.3-9.3,33.6,0s9.3,24.3,0,33.6l0,0L102.6,81
	c-3.2,3-3.4,8-0.5,11.2c3,3.2,8,3.4,11.2,0.5c0.2-0.2,0.3-0.3,0.5-0.5l22.4-22.4l0,0C143.6,62.4,147.8,52.4,147.8,41.8L147.8,41.8z"
	/>
<path class="st0" d="M46.5,103.4c3.1,3.1,8.1,3.1,11.2,0l44.8-44.8c3-3.2,2.8-8.2-0.5-11.2c-3-2.8-7.7-2.8-10.7,0L46.5,92.2
	C43.4,95.3,43.4,100.3,46.5,103.4L46.5,103.4z"/>
</svg>
