<?xml version="1.0" encoding="utf-8"?>
<!-- Generator: Adobe Illustrator 27.3.0, SVG Export Plug-In . SVG Version: 6.00 Build 0)  -->
<svg version="1.1" id="Camada_1" xmlns="http://www.w3.org/2000/svg" xmlns:xlink="http://www.w3.org/1999/xlink" x="0px" y="0px"
	 viewBox="0 0 150 150" style="enable-background:new 0 0 150 150;" xml:space="preserve">
<style type="text/css">
	.st0{fill:#2898E0;}
</style>
<g id="levels">
	<g id="Grupo_6">
		<g id="Grupo_5">
			<path id="Caminho_12" class="st0" d="M139.9,31.7H78.1C73.6,16,57.2,6.8,41.4,11.3C31.5,14.1,23.8,21.8,21,31.7H10.1
				c-4.5,0-8.1,3.6-8.1,8.1s3.6,8.1,8.1,8.1H21c4.5,15.8,20.9,24.9,36.7,20.4c9.9-2.8,17.6-10.5,20.4-20.4h61.8
				c4.5,0,8.1-3.6,8.1-8.1S144.4,31.7,139.9,31.7z M49.5,53.3c-7.4,0-13.5-6-13.5-13.5c0-7.4,6-13.5,13.5-13.5
				c7.4,0,13.5,6,13.5,13.5C63,47.3,57,53.3,49.5,53.3z"/>
		</g>
	</g>
	<g id="Grupo_8">
		<g id="Grupo_7">
			<path id="Caminho_13" class="st0" d="M139.9,102.1H129c-4.5-15.8-20.9-24.9-36.7-20.4c-9.9,2.8-17.6,10.5-20.4,20.4H10.1
				c-4.5,0-8.1,3.6-8.1,8.1c0,4.5,3.6,8.1,8.1,8.1h61.8c4.5,15.8,20.9,24.9,36.7,20.4c9.9-2.8,17.6-10.5,20.4-20.4h10.9
				c4.5,0,8.1-3.6,8.1-8.1C148,105.7,144.4,102.1,139.9,102.1L139.9,102.1L139.9,102.1L139.9,102.1z M100.5,123.6
				c-7.4,0-13.5-6-13.5-13.5c0-7.4,6-13.5,13.5-13.5s13.5,6,13.5,13.5l0,0C113.9,117.6,107.9,123.6,100.5,123.6
				C100.4,123.6,100.4,123.6,100.5,123.6z"/>
		</g>
	</g>
</g>
</svg>
