<?xml version="1.0" encoding="utf-8"?>
<!-- Generator: Adobe Illustrator 27.3.0, SVG Export Plug-In . SVG Version: 6.00 Build 0)  -->
<svg version="1.1" id="Camada_1" xmlns="http://www.w3.org/2000/svg" xmlns:xlink="http://www.w3.org/1999/xlink" x="0px" y="0px"
	 viewBox="0 0 400 297.9" style="enable-background:new 0 0 400 297.9;" xml:space="preserve">
<style type="text/css">
	.st0{opacity:0.25;fill:#2898E0;enable-background:new    ;}
	.st1{fill:#2898E0;}
	.st2{fill:#FFFFFF;}
</style>
<path id="Caminho_2_00000131331715936587316940000016299684739975346053_" class="st0" d="M389,49.6c-4.4-17.3-17.6-31.1-34.8-36.1
	c-30.9-8.7-154.6-8.7-154.6-8.7s-123.7,0-154.6,8.5C27.6,18.4,14.4,32.2,10,49.6C1.8,81.6,1.8,148,1.8,148s0,66.7,8.2,98.5
	c4.4,17.3,17.6,31.1,34.8,36.1c31.3,8.7,154.6,8.7,154.6,8.7s123.7,0,154.6-8.5c17.2-5,30.5-18.7,34.8-36c8.2-32,8.2-98.5,8.2-98.5
	S397.4,81.6,389,49.6C389,49.6,389,49.6,389,49.6z"/>
<path id="Caminho_1_00000085973584272618651550000017345280193999891379_" class="st1" d="M362.4,66.3c-3.9-14.6-15.3-26-30-30
	c-26.6-7.3-132.9-7.3-132.9-7.3s-106.4,0-132.9,7c-14.6,4.2-25.9,15.6-30,30.2c-7,26.6-7,81.7-7,81.7s0,55.4,7,81.7
	c3.9,14.6,15.3,26,30,30c26.8,7.3,132.9,7.3,132.9,7.3s106.4,0,132.9-7c14.6-3.9,26-15.3,30-30c7-26.6,7-81.7,7-81.7
	S369.6,92.9,362.4,66.3C362.4,66.3,362.4,66.3,362.4,66.3z"/>
<g>
	<g>
		<path class="st2" d="M179.3,108.5v62.1c-3.6-3.2-8.4-5.2-13.6-5.2c-11.3,0-20.4,9.2-20.4,20.4c0,11.3,9.2,20.4,20.4,20.4
			c11.2,0,20.4-9.1,20.4-20.4h0V136l60.7-15.4v33.5c-3.6-3.2-8.4-5.2-13.6-5.2c-11.3,0-20.4,9.2-20.4,20.4
			c0,11.3,9.2,20.4,20.4,20.4c11.3,0,20.4-9.2,20.4-20.4V89.7L179.3,108.5z"/>
	</g>
</g>
</svg>
