<?xml version="1.0" encoding="utf-8"?>
<!-- Generator: Adobe Illustrator 27.3.0, SVG Export Plug-In . SVG Version: 6.00 Build 0)  -->
<svg version="1.1" id="Camada_1" xmlns="http://www.w3.org/2000/svg" xmlns:xlink="http://www.w3.org/1999/xlink" x="0px" y="0px"
	 viewBox="0 0 222.2 41.8" style="enable-background:new 0 0 222.2 41.8;" xml:space="preserve">
<style type="text/css">
	.st0{opacity:0.25;fill:#2898E0;enable-background:new    ;}
	.st1{fill:#2898E0;}
	.st2{fill:#FFFFFF;}
</style>
<path id="Caminho_2" class="st0" d="M54.1,7.6c-0.6-2.3-2.4-4.2-4.7-4.9c-4.2-1.2-20.9-1.2-20.9-1.2s-16.7,0-20.9,1.1
	c-2.2,0.8-4,2.7-4.6,5c-1.1,4.3-1.1,13.3-1.1,13.3s0,9,1.1,13.3c0.6,2.3,2.4,4.2,4.7,4.9c4.2,1.2,20.9,1.2,20.9,1.2s16.7,0,20.9-1.1
	c2.3-0.7,4.1-2.5,4.7-4.9C55.3,30,55.3,21,55.3,21S55.2,11.9,54.1,7.6L54.1,7.6z"/>
<path id="Caminho_1" class="st1" d="M50.5,9.9c-0.5-2-2.1-3.5-4-4c-3.6-1-17.9-1-17.9-1s-14.4,0-17.9,0.9c-2,0.6-3.5,2.1-4,4.1
	c-0.9,3.6-0.9,11-0.9,11s0,7.5,0.9,11c0.5,2,2.1,3.5,4,4c3.6,1,17.9,1,17.9,1s14.4,0,17.9-0.9c2-0.5,3.5-2.1,4-4
	c0.9-3.6,0.9-11,0.9-11S51.5,13.4,50.5,9.9C50.5,9.8,50.5,9.8,50.5,9.9z"/>
<g id="Grupo_1">
	<path id="Caminho_3" class="st2" d="M63.8,28.6V11.7h6c1.2,0,2.3,0.2,3.4,0.6c2,0.8,3.6,2.4,4.5,4.4c0.4,1.1,0.6,2.2,0.6,3.3
		c0,1.1-0.2,2.3-0.6,3.4c-0.4,1-1,1.9-1.8,2.7c-0.8,0.8-1.7,1.4-2.7,1.8c-1.1,0.4-2.2,0.6-3.4,0.6L63.8,28.6L63.8,28.6z M69.8,15.7
		h-1.7v9h1.7c0.8,0,1.5-0.2,2.2-0.6c0.6-0.4,1.1-1,1.4-1.6c0.3-0.7,0.5-1.5,0.5-2.3s-0.2-1.6-0.5-2.3c-0.3-0.7-0.8-1.2-1.4-1.6
		C71.4,15.8,70.6,15.6,69.8,15.7L69.8,15.7z"/>
	<path id="Caminho_4" class="st2" d="M88.2,29c-1.2,0-2.3-0.2-3.3-0.7c-1-0.4-1.9-1-2.7-1.9c-0.8-0.8-1.3-1.8-1.7-2.8
		c-0.4-1.1-0.6-2.3-0.6-3.5s0.2-2.4,0.6-3.5c0.4-1,1-2,1.7-2.8c0.8-0.8,1.7-1.4,2.7-1.8c1.1-0.4,2.2-0.7,3.3-0.7
		c1.2,0,2.3,0.2,3.3,0.7c1,0.4,1.9,1.1,2.7,1.8c0.8,0.8,1.4,1.8,1.8,2.8c0.4,1.1,0.6,2.3,0.6,3.5s-0.2,2.4-0.6,3.5
		c-0.4,1-1,2-1.8,2.8s-1.7,1.4-2.7,1.9S89.4,29,88.2,29z M88.2,25c0.7,0,1.5-0.2,2.1-0.6s1.1-1,1.3-1.7c0.3-0.8,0.5-1.7,0.5-2.5
		c0-0.9-0.2-1.7-0.5-2.5c-0.3-0.7-0.8-1.2-1.3-1.7c-1.3-0.8-2.9-0.8-4.2,0c-0.6,0.4-1.1,1-1.4,1.7c-0.3,0.8-0.5,1.7-0.5,2.5
		c0,0.9,0.2,1.7,0.5,2.5c0.3,0.7,0.8,1.3,1.4,1.7C86.8,24.8,87.5,25,88.2,25z"/>
	<path id="Caminho_5" class="st2" d="M101.5,11.7c0.4,1.7,0.8,3.4,1.1,5.2s0.8,3.5,1.1,5.2c0.4-1.7,0.8-3.5,1.2-5.2s0.8-3.5,1.1-5.2
		h3.9c0.4,1.7,0.8,3.4,1.2,5.2c0.4,1.7,0.8,3.5,1.2,5.2c0.4-1.7,0.8-3.5,1.1-5.2s0.7-3.5,1.1-5.2h4c-0.6,2.8-1.2,5.6-1.8,8.4
		s-1.2,5.7-1.8,8.4h-5c-0.3-1.5-0.7-3.1-1.1-4.7s-0.7-3.1-1.1-4.7c-0.3,1.5-0.7,3.1-1,4.7s-0.7,3.1-1,4.7h-4.9
		c-0.6-2.8-1.2-5.6-1.8-8.4s-1.2-5.7-1.8-8.4L101.5,11.7L101.5,11.7z"/>
	<path id="Caminho_5_00000066486268668499295200000016524286966736397195_" class="st2" d="M124.2,11.7c0.4,1.7,0.8,3.4,1.1,5.2
		s0.8,3.5,1.1,5.2c0.4-1.7,0.8-3.5,1.2-5.2s0.8-3.5,1.1-5.2h3.9c0.4,1.7,0.8,3.4,1.2,5.2c0.4,1.7,0.8,3.5,1.2,5.2
		c0.4-1.7,0.8-3.5,1.1-5.2c0.3-1.7,0.7-3.5,1.1-5.2h4c-0.6,2.8-1.2,5.6-1.8,8.4s-1.2,5.7-1.8,8.4h-5c-0.3-1.5-0.7-3.1-1.1-4.7
		c-0.4-1.6-0.7-3.1-1.1-4.7c-0.3,1.5-0.7,3.1-1,4.7s-0.7,3.1-1,4.7h-4.9c-0.6-2.8-1.2-5.6-1.8-8.4s-1.2-5.7-1.8-8.4L124.2,11.7
		L124.2,11.7z"/>
	<path id="Caminho_6" class="st2" d="M143,28.6V11.7h4.4c0.9,1.6,1.8,3.2,2.7,4.8s1.8,3.2,2.7,4.8v-9.5h4.3v16.9h-4.4
		c-0.9-1.6-1.8-3.2-2.7-4.8s-1.8-3.2-2.7-4.8v9.5L143,28.6L143,28.6z"/>
	<path id="Caminho_7" class="st2" d="M160.2,28.6V11.7h4.3v12.9h5.3v4L160.2,28.6L160.2,28.6z"/>
	<path id="Caminho_8" class="st2" d="M179.5,29c-1.1,0-2.3-0.2-3.4-0.7c-1-0.4-1.9-1-2.7-1.9c-0.8-0.8-1.4-1.8-1.7-2.8
		c-0.4-1.1-0.6-2.3-0.6-3.5s0.2-2.4,0.6-3.5c0.4-1,1-2,1.7-2.8c0.8-0.8,1.6-1.4,2.7-1.8c1.1-0.4,2.2-0.7,3.4-0.7
		c1.1,0,2.3,0.2,3.3,0.7c1,0.4,1.9,1.1,2.7,1.8c0.8,0.8,1.4,1.8,1.8,2.8c0.4,1.1,0.6,2.3,0.6,3.5s-0.2,2.4-0.6,3.5
		c-0.4,1-1,2-1.8,2.8c-0.8,0.8-1.6,1.4-2.7,1.9C181.8,28.8,180.6,29,179.5,29z M179.5,25c0.7,0,1.5-0.2,2.1-0.6s1.1-1,1.4-1.7
		c0.3-0.8,0.5-1.7,0.5-2.5c0-0.9-0.1-1.7-0.5-2.5c-0.3-0.7-0.8-1.2-1.4-1.7c-1.3-0.8-2.9-0.8-4.2,0c-0.6,0.4-1.1,1-1.4,1.7
		c-0.3,0.8-0.5,1.7-0.5,2.5c0,0.9,0.1,1.7,0.5,2.5c0.3,0.7,0.8,1.3,1.4,1.7C178,24.8,178.7,25,179.5,25z"/>
	<path id="Caminho_9" class="st2" d="M188.1,28.6c0.9-2.8,1.7-5.6,2.6-8.4c0.9-2.8,1.7-5.7,2.6-8.4h5.9c0.9,2.8,1.7,5.6,2.6,8.4
		c0.9,2.8,1.7,5.7,2.6,8.4H200c-0.2-0.5-0.3-1.1-0.5-1.6c-0.2-0.5-0.3-1.1-0.5-1.6h-5.7c-0.2,0.5-0.3,1.1-0.5,1.6
		c-0.2,0.5-0.3,1.1-0.5,1.6H188.1L188.1,28.6L188.1,28.6z M194.5,21.7h3.5c-0.3-1-0.6-2-0.9-3c-0.3-1-0.6-2-0.9-3
		c-0.3,1-0.6,2-0.9,3C195.1,19.8,194.8,20.7,194.5,21.7L194.5,21.7z"/>
	<path id="Caminho_10" class="st2" d="M206,28.6V11.7h6c1.2,0,2.3,0.2,3.4,0.6c2,0.8,3.6,2.4,4.5,4.4c0.4,1.1,0.6,2.2,0.6,3.3
		c0,1.1-0.2,2.3-0.6,3.4c-0.4,1-1,1.9-1.8,2.7c-0.7,0.9-1.7,1.5-2.7,1.9c-1.1,0.4-2.2,0.6-3.4,0.6H206L206,28.6L206,28.6z
		 M212.1,15.7h-1.7v9h1.7c0.8,0,1.5-0.2,2.2-0.6c0.6-0.4,1.1-1,1.4-1.6c0.3-0.7,0.5-1.5,0.5-2.3s-0.2-1.6-0.5-2.3
		c-0.3-0.7-0.8-1.2-1.4-1.6C213.6,15.8,212.8,15.6,212.1,15.7L212.1,15.7z"/>
</g>
<g>
	<g>
		<path class="st2" d="M25.8,14.9v8.4c-0.5-0.4-1.1-0.7-1.8-0.7c-1.5,0-2.8,1.2-2.8,2.8S22.5,28,24,28s2.8-1.2,2.8-2.7l0,0v-6.7
			l8.2-2.1V21c-0.5-0.4-1.1-0.7-1.8-0.7c-1.5,0-2.8,1.2-2.8,2.8c0,1.5,1.2,2.8,2.8,2.8c1.5,0,2.8-1.2,2.8-2.8V12.3L25.8,14.9z"/>
	</g>
</g>
</svg>
