<?xml version="1.0" encoding="UTF-8"?>
<svg id="Camada_1" data-name="Camada 1" xmlns="http://www.w3.org/2000/svg" viewBox="0 0 150 150">
  <defs>
    <style>
      .cls-1 {
        fill: #fff;
      }
    </style>
  </defs>
  <path class="cls-1" d="m80.13,103.45l-22.39,22.39h0c-9.49,9.07-24.53,8.73-33.6-.76-8.78-9.18-8.78-23.64,0-32.83h0l22.39-22.39c2.97-3.22,2.76-8.23-.46-11.2-3.03-2.8-7.71-2.8-10.74,0l-22.39,22.39h0c-14.95,15.97-14.12,41.04,1.86,55.99,15.22,14.25,38.89,14.25,54.12.01h0l22.39-22.39c2.97-3.22,2.76-8.23-.46-11.2-3.03-2.8-7.71-2.8-10.74,0l.02-.03Z"/>
  <path class="cls-1" d="m147.75,41.83c-.03-21.88-17.78-39.59-39.66-39.57-10.48.01-20.53,4.18-27.94,11.58h0l-22.39,22.39c-3.22,2.97-3.42,7.98-.46,11.2,2.97,3.22,7.98,3.42,11.2.46.16-.15.31-.3.46-.46l22.39-22.39h0c9.28-9.28,24.33-9.28,33.61,0,9.28,9.28,9.28,24.33,0,33.61h0l-22.39,22.39c-3.22,2.97-3.42,7.98-.46,11.2,2.97,3.22,7.98,3.42,11.2.46.16-.15.31-.3.46-.46l22.39-22.39h0c7.45-7.41,11.63-17.5,11.6-28.01Z"/>
  <path class="cls-1" d="m46.52,103.45c3.09,3.09,8.1,3.09,11.2,0l44.82-44.81c2.97-3.22,2.76-8.23-.46-11.2-3.03-2.8-7.71-2.8-10.74,0l-44.82,44.8c-3.09,3.09-3.09,8.11,0,11.2Z"/>
</svg>