<?xml version="1.0" encoding="UTF-8"?>
<svg id="Camada_1" data-name="Camada 1" xmlns="http://www.w3.org/2000/svg" viewBox="0 0 150 150">
  <defs>
    <style>
      .cls-1 {
        fill: #fff;
      }
    </style>
  </defs>
  <g id="document">
    <path id="Caminho_22" data-name="Caminho 22" class="cls-1" d="m125.44,32.52l-27.35-25.88c-2.89-2.75-6.73-4.28-10.72-4.27h-52.06c-8.62,0-15.61,6.98-15.62,15.6v114.04c0,8.61,6.99,15.6,15.6,15.6h79.43c8.61,0,15.6-6.99,15.6-15.6V43.85c0-4.29-1.77-8.38-4.88-11.33h0Zm-8.27,3.9h-21.16c-.78,0-1.42-.64-1.42-1.42V15.04l22.58,21.38Zm-2.46,102.69H35.28c-3.92,0-7.09-3.18-7.09-7.09V17.98c0-3.92,3.18-7.09,7.09-7.09h50.79v24.12c0,5.48,4.45,9.92,9.93,9.93h25.82v87.08c0,3.92-3.18,7.09-7.1,7.09h0Z"/>
    <path id="Caminho_23" data-name="Caminho 23" class="cls-1" d="m105.35,59.11h-62.41c-2.35,0-4.26,1.91-4.26,4.26s1.91,4.26,4.26,4.26h62.41c2.35,0,4.26-1.91,4.26-4.26s-1.91-4.26-4.26-4.26h0Z"/>
    <path id="Caminho_24" data-name="Caminho 24" class="cls-1" d="m105.35,81.81h-62.41c-2.35,0-4.26,1.91-4.26,4.26s1.91,4.26,4.26,4.26h62.41c2.35,0,4.26-1.91,4.26-4.26s-1.91-4.26-4.26-4.26h0Z"/>
    <path id="Caminho_25" data-name="Caminho 25" class="cls-1" d="m63.57,104.5h-20.63c-2.35,0-4.26,1.91-4.26,4.26s1.91,4.26,4.26,4.26h20.63c2.35,0,4.26-1.91,4.26-4.26s-1.91-4.26-4.26-4.26Z"/>
  </g>
</svg>