<?xml version="1.0" encoding="UTF-8"?>
<svg id="Camada_1" data-name="Camada 1" xmlns="http://www.w3.org/2000/svg" viewBox="0 0 150 150">
  <defs>
    <style>
      .cls-1 {
        fill: #ff002a;
      }
    </style>
  </defs>
  <g id="levels">
    <g id="Grupo_6" data-name="Grupo 6">
      <g id="Grupo_5" data-name="Grupo 5">
        <path id="Caminho_12" data-name="Caminho 12" class="cls-1" d="m139.91,31.73h-61.82c-4.5-15.77-20.93-24.92-36.71-20.42-9.88,2.82-17.6,10.54-20.42,20.42h-10.89c-4.48,0-8.1,3.64-8.1,8.11,0,4.47,3.63,8.09,8.1,8.1h10.89c4.5,15.77,20.93,24.92,36.71,20.42,9.88-2.82,17.6-10.54,20.42-20.42h61.82c4.48,0,8.1-3.64,8.1-8.11,0-4.47-3.63-8.09-8.1-8.1Zm-90.4,21.58c-7.44-.01-13.47-6.05-13.46-13.5.01-7.44,6.05-13.47,13.5-13.46,7.44.01,13.46,6.05,13.46,13.49-.01,7.44-6.05,13.47-13.5,13.47Z"/>
      </g>
    </g>
    <g id="Grupo_8" data-name="Grupo 8">
      <g id="Grupo_7" data-name="Grupo 7">
        <path id="Caminho_13" data-name="Caminho 13" class="cls-1" d="m139.91,102.06h-10.89c-4.5-15.77-20.93-24.92-36.71-20.42-9.88,2.82-17.6,10.54-20.42,20.42H10.09c-4.48-.01-8.11,3.6-8.13,8.08-.01,4.48,3.61,8.11,8.08,8.13h61.84c4.5,15.77,20.93,24.92,36.71,20.42,9.88-2.82,17.6-10.54,20.42-20.42h10.89c4.48.01,8.11-3.6,8.13-8.08.01-4.48-3.61-8.11-8.08-8.13h-.05,0Zm-39.46,21.58c-7.44,0-13.48-6.03-13.48-13.48,0-7.44,6.03-13.48,13.48-13.48s13.48,6.03,13.48,13.48h0c0,7.44-6.04,13.47-13.48,13.48h0Z"/>
      </g>
    </g>
  </g>
</svg>