<?xml version="1.0" encoding="utf-8"?>
<!-- Generator: Adobe Illustrator 27.2.0, SVG Export Plug-In . SVG Version: 6.00 Build 0)  -->
<svg version="1.1" id="Camada_1" xmlns="http://www.w3.org/2000/svg" xmlns:xlink="http://www.w3.org/1999/xlink" x="0px" y="0px"
	 viewBox="0 0 400 297.9" style="enable-background:new 0 0 400 297.9;" xml:space="preserve">
<style type="text/css">
	.st0{fill:#FF002B;}
	.st1{opacity:0.25;fill:#FF002B;enable-background:new    ;}
	.st2{fill:#FFFFFF;}
</style>
<path id="Caminho_1" class="st0" d="M364.1,66.9c-4-14.7-15.4-26.1-30.1-30.1c-26.7-7.3-133.4-7.3-133.4-7.3s-106.8,0-133.4,7
	c-14.6,4.2-26,15.7-30.1,30.3c-7,26.7-7,82-7,82s0,55.6,7,82c4,14.6,15.4,26.1,30.1,30.1c27,7.3,133.4,7.3,133.4,7.3
	s106.8,0,133.4-7c14.7-4,26.1-15.4,30.1-30.1c7-26.7,7-82,7-82S371.4,93.5,364.1,66.9L364.1,66.9z"/>
<path id="Caminho_2" class="st1" d="M390.8,50.1c-4.4-17.4-17.7-31.2-35-36.2c-31.1-8.8-155.3-8.8-155.3-8.8s-124.2,0-155.3,8.5
	c-17.2,5.2-30.5,19.1-35,36.5c-8.2,32.1-8.2,98.8-8.2,98.8s0,67,8.2,98.8c4.4,17.4,17.7,31.2,35,36.2c31.4,8.8,155.3,8.8,155.3,8.8
	s124.2,0,155.3-8.5c17.3-5,30.6-18.8,35-36.2c8.2-32.2,8.2-98.8,8.2-98.8S399.3,82.2,390.8,50.1L390.8,50.1z"/>
<path id="Caminho_11" class="st2" d="M253,90.8l-74.6,74.6l-30.2-30.2l-20.8,20.8l30.2,30.2l20,20l0.8,0.8l95.4-95.4L253,90.8z"/>
</svg>
