<?xml version="1.0" encoding="UTF-8"?>
<svg id="Camada_1" data-name="Camada 1" xmlns="http://www.w3.org/2000/svg" viewBox="0 0 150 150">
  <defs>
    <style>
      .cls-1 {
        fill: #fff;
      }
    </style>
  </defs>
  <g id="Grupo_20" data-name="Grupo 20">
    <path id="Caminho_26" data-name="Caminho 26" class="cls-1" d="m75,2.38C34.89,2.38,2.37,34.89,2.37,75s32.52,72.62,72.63,72.62,72.62-32.52,72.62-72.62h0c-.05-40.09-32.54-72.58-72.62-72.62Zm40.59,53.52l-46.41,46.05c-2.73,2.78-7.19,2.86-10.01.18l-24.57-22.39c-2.88-2.7-3.12-7.2-.55-10.19,2.71-2.91,7.26-3.08,10.18-.38,0,0,.01.01.02.02l19.48,17.84,41.5-41.5c2.92-2.81,7.57-2.71,10.38.21,2.73,2.84,2.73,7.33,0,10.17Z"/>
  </g>
</svg>