<?xml version="1.0" encoding="UTF-8"?>
<svg id="Camada_1" data-name="Camada 1" xmlns="http://www.w3.org/2000/svg" viewBox="0 0 150 150">
  <defs>
    <style>
      .cls-1 {
        fill: #fff;
      }
    </style>
  </defs>
  <path id="Caminho_20" data-name="Caminho 20" class="cls-1" d="m147.63,49.71v-16.98c0-2.35-1.91-4.26-4.26-4.26-.58,0-1.15.12-1.68.34l-59.57,25.53c-1.56.67-2.58,2.21-2.57,3.91v58.7c-3.87-2.25-8.28-3.42-12.76-3.38-5.23-.07-10.35,1.54-14.6,4.59-6.86,4.53-8.75,13.77-4.22,20.64,1.11,1.67,2.54,3.11,4.22,4.22,8.77,6.13,20.43,6.13,29.19,0,4.07-2.85,6.55-7.46,6.68-12.43v-52.51l51.06-21.89v35.21c-3.87-2.25-8.28-3.42-12.76-3.38-5.23-.07-10.35,1.54-14.6,4.6-6.86,4.53-8.75,13.77-4.22,20.64,1.11,1.67,2.54,3.11,4.22,4.22,8.77,6.13,20.43,6.13,29.19,0,4.07-2.85,6.55-7.46,6.68-12.43v-55.34h0Zm-80.85,89.41c-6.91,0-12.76-3.89-12.76-8.51s5.85-8.51,12.76-8.51,12.76,3.89,12.76,8.51-5.85,8.5-12.76,8.5h0Zm21.28-70.29v-7.76l51.06-21.89v7.76l-51.06,21.89Zm38.29,44.76c-6.91,0-12.76-3.89-12.76-8.51s5.85-8.51,12.76-8.51,12.76,3.89,12.76,8.51-5.85,8.5-12.76,8.5h0Z"/>
  <path id="Caminho_21" data-name="Caminho 21" class="cls-1" d="m61.95,49.18c0,5.49-5.25,11.98-7.26,14.02-1.71,1.61-1.8,4.3-.19,6.01s4.3,1.8,6.01.19c.06-.06.12-.12.18-.18,1-1,9.77-10.04,9.77-20.02,0-8-4.57-18.17-13.62-30.2-4.05-5.4-8.45-10.53-13.17-15.35-.1-.1-.21-.19-.32-.28-.05-.04-.11-.06-.15-.1l-.19-.13c-.06-.04-.12-.08-.19-.11l-.17-.11c-.06-.04-.12-.06-.19-.08-.06-.02-.13-.07-.19-.07l-.19-.08c-.06-.02-.13-.04-.21-.06-.06-.02-.13-.04-.19-.04l-.21-.07c-.06-.02-.14-.02-.21-.04s-.13-.02-.21-.02c-.06-.08-.19-.08-.29-.08h-.15c-.11,0-.23,0-.34.02-.07,0-.15.02-.21.04-.06,0-.13.02-.19.02l-.23.06c-.06.02-.11.02-.17.04-.08.02-.16.05-.23.09l-.17.06c-.08.03-.15.06-.21.11-.06.02-.12.05-.17.08-.06.04-.15.08-.21.13l-.14.08c-.08.05-.16.11-.23.17-.02.02-.06.04-.08.06-.22.18-.42.38-.6.6-.03.02-.03.06-.06.09l-.19.25s-.06.07-.08.13-.09.15-.13.21-.04.11-.06.15c-.04.07-.08.15-.11.23-.03.04-.04.09-.04.14-.02.08-.06.17-.08.25s-.02.09-.06.14-.04.17-.06.28c0,.04-.02.08-.02.13s-.02.19-.04.28v.17c0,.08-.02.15-.02.23v58.69c-3.87-2.25-8.28-3.42-12.76-3.38-5.23-.07-10.35,1.54-14.6,4.59-4.06,2.86-6.53,7.46-6.67,12.43.14,4.96,2.62,9.56,6.68,12.42,4.25,3.05,9.36,4.66,14.6,4.59,5.23.07,10.35-1.54,14.6-4.59,4.07-2.85,6.55-7.46,6.68-12.43V17.65c7.68,9.13,17.02,22.4,17.02,31.53Zm-38.3,38.3c-6.91,0-12.76-3.89-12.76-8.51s5.85-8.51,12.76-8.51,12.76,3.89,12.76,8.51-5.85,8.51-12.76,8.51Z"/>
</svg>