<?xml version="1.0" encoding="UTF-8"?>
<svg id="Camada_1" data-name="Camada 1" xmlns="http://www.w3.org/2000/svg" viewBox="0 0 150 150">
  <defs>
    <style>
      .cls-1 {
        fill: #ff002a;
      }
    </style>
  </defs>
  <g id="Solid">
    <path id="Caminho_14" data-name="Caminho 14" class="cls-1" d="m69.69,115.29c2.93,2.93,7.67,2.93,10.6,0h0s28.26-28.27,28.26-28.27c2.93-2.93,2.93-7.67,0-10.6s-7.67-2.93-10.6,0h0l-15.46,15.47V10.04c0-4.14-3.35-7.5-7.49-7.5-4.14,0-7.5,3.35-7.5,7.49v81.87l-15.47-15.47c-2.93-2.93-7.67-2.93-10.6,0-2.93,2.93-2.93,7.67,0,10.6h0l28.25,28.26Z"/>
    <path id="Caminho_15" data-name="Caminho 15" class="cls-1" d="m139.94,67.52c-4.14,0-7.49,3.36-7.49,7.49v57.45H17.55v-57.45c0-4.14-3.36-7.49-7.49-7.49s-7.49,3.36-7.49,7.49v59.96c0,6.9,5.59,12.49,12.49,12.49h119.89c6.9,0,12.49-5.59,12.49-12.49h0v-59.96c0-4.14-3.36-7.49-7.49-7.49Z"/>
  </g>
</svg>