<?xml version="1.0" encoding="UTF-8"?>
<svg id="Camada_1" data-name="Camada 1" xmlns="http://www.w3.org/2000/svg" viewBox="0 0 150 150">
  <defs>
    <style>
      .cls-1 {
        fill: #fff;
      }
    </style>
  </defs>
  <path id="monitor" class="cls-1" d="m138.95,9.63H11.05c-4.69,0-8.49,3.8-8.49,8.49t0,0v84.32c0,4.69,3.8,8.49,8.49,8.49h41.59v20.96h-22.92c-2.34.07-4.18,2.03-4.11,4.38.07,2.24,1.87,4.04,4.11,4.11h90.55c2.34-.07,4.18-2.03,4.11-4.38-.07-2.24-1.87-4.04-4.11-4.11h-22.92v-20.96h41.59c4.69,0,8.49-3.8,8.49-8.49V18.12c-.01-4.68-3.81-8.47-8.49-8.49Zm-50.08,122.24h-27.74v-20.96h27.74v20.96Zm50.08-29.41H11.05V18.12h127.9v84.34h0Z"/>
</svg>