<?xml version="1.0" standalone="no"?>
<!DOCTYPE svg PUBLIC "-//W3C//DTD SVG 20010904//EN"
 "http://www.w3.org/TR/2001/REC-SVG-20010904/DTD/svg10.dtd">
<svg version="1.0" xmlns="http://www.w3.org/2000/svg"
 width="1081.000000pt" height="1081.000000pt" viewBox="0 0 1081.000000 1081.000000"
 preserveAspectRatio="xMidYMid meet">
<metadata>
Created by potrace 1.14, written by Peter Selinger 2001-2017
</metadata>
<g transform="translate(0.000000,1081.000000) scale(0.100000,-0.100000)"
fill="#000000" stroke="none">
<path d="M4375 8620 c-1446 -32 -2344 -99 -2632 -195 -352 -119 -636 -408
-746 -761 -67 -212 -127 -644 -161 -1144 -35 -508 -46 -989 -35 -1455 26
-1070 118 -1804 261 -2090 135 -267 389 -488 668 -580 291 -96 947 -153 2265
-197 493 -17 2349 -16 2855 0 1484 48 2066 107 2347 237 208 96 414 290 527
496 137 250 215 743 268 1679 17 298 17 1346 0 1630 -45 776 -112 1249 -212
1507 -112 291 -364 538 -664 651 -286 108 -973 171 -2321 212 -452 14 -1956
20 -2420 10z m2733 -1923 l282 -282 -1295 -1295 -1295 -1295 -692 692 -693
693 285 285 285 285 407 -407 408 -408 1008 1008 c554 554 1009 1007 1012
1007 3 0 132 -127 288 -283z"/>
</g>
</svg>
